#!OML:ASF Y:\EmotionMaleHayes\Project 1\Capture day 1\Session 1\Male1.ASF
:FULLY-SPECIFIED
:DEGREES
962
root 11.1835 17.0175 1.5687 165.523 78.7537 161.316
lowerback 2.91941 -0.30101 2.49956
upperback 3.49159 -0.30124 1.09256
thorax 1.93989 -0.0744812 -0.274355
lowerneck -25.3832 0.488832 4.45163
upperneck 37.5607 -0.088548 -0.467214
head 18.4328 0.925011 -0.898739
rclavicle -1.09332e-014 2.78299e-014
rhumerus 33.7166 13.6487 -44.2343
rradius 37.6829
rwrist -1.59047
rhand 0.18372 -27.428
rfingers 7.12502
rthumb 25.7663 -55.7033
lclavicle -1.09332e-014 2.78299e-014
lhumerus 36.7815 -22.2671 38.1103
lradius 42.1387
lwrist 0.194479
lhand 2.42588 -27.7043
lfingers 7.12502
lthumb 27.9118 0.241404
rfemur 18.57 -3.91468 15.8133
rtibia 0.609694
rfoot -17.3747 -0.0758546
rtoes 9.92897
lfemur -13.2919 -4.87911 -7.31901
ltibia 18.4774
lfoot -12.1923 4.69959
ltoes -17.0283
963
root 11.2641 17.021 1.5427 166.486 79.4272 162.41
lowerback 3.17915 -0.11392 2.93773
upperback 3.63952 -0.031731 1.22558
thorax 1.95427 0.0735534 -0.385633
lowerneck -25.2441 0.343922 4.23544
upperneck 37.487 -0.315856 -0.194357
head 18.3481 0.843851 -0.783411
rclavicle -2.04748e-014 -1.19271e-014
rhumerus 33.8021 13.8759 -44.0441
rradius 37.6488
rwrist -1.9224
rhand -0.0948815 -27.6498
rfingers 7.12502
rthumb 25.4995 -55.9636
lclavicle -2.04748e-014 -1.19271e-014
lhumerus 36.7434 -22.21 38.0941
lradius 42.0988
lwrist 0.114847
lhand 2.4309 -27.7035
lfingers 7.12502
lthumb 27.9166 0.241387
rfemur 18.7898 -3.14908 16.4082
rtibia 0.738315
rfoot -17.1601 -0.4424
rtoes 9.23084
lfemur -13.7999 -4.38434 -7.12444
ltibia 18.0467
lfoot -11.5304 5.21281
ltoes -19.0123
964
root 11.3476 17.0275 1.51288 167.598 80.1015 163.675
lowerback 3.53587 0.079868 3.44814
upperback 3.73651 0.255654 1.31749
thorax 1.86639 0.230907 -0.581567
lowerneck -25.127 0.280115 4.25998
upperneck 37.5146 -0.422293 -0.163599
head 18.3304 0.81387 -0.796266
rclavicle 2.98177e-015 1.98785e-014
rhumerus 33.8117 14.2528 -43.7174
rradius 37.6533
rwrist -2.3783
rhand -0.463499 -27.6966
rfingers 7.12502
rthumb 25.1463 -56.0604
lclavicle 2.98177e-015 1.98785e-014
lhumerus 36.6756 -22.3413 37.935
lradius 42.1322
lwrist 0.0680495
lhand 2.33833 -27.6427
lfingers 7.12502
lthumb 27.8281 0.316596
rfemur 19.0682 -2.55751 16.9056
rtibia 0.806293
rfoot -16.8146 -0.563963
rtoes 7.51847
lfemur -14.1821 -3.80703 -7.01301
ltibia 17.4571
lfoot -10.4895 5.72918
ltoes -23.3775
965
root 11.429 17.0374 1.4761 165.331 80.5388 161.37
lowerback 3.76954 0.23365 3.34849
upperback 3.81115 0.469946 1.23752
thorax 1.81995 0.337713 -0.613075
lowerneck -25.2426 0.319816 4.46543
upperneck 37.7278 -0.405296 -0.273626
head 18.4829 0.844352 -0.879142
rclavicle 1.68967e-014 1.11319e-014
rhumerus 33.8625 14.2647 -43.9037
rradius 37.5331
rwrist -2.27362
rhand -0.563322 -27.484
rfingers 7.12502
rthumb 25.0507 -55.8612
lclavicle 1.68967e-014 1.11319e-014
lhumerus 36.6141 -22.4155 37.7301
lradius 42.1394
lwrist 0.151057
lhand 2.59885 -27.9182
lfingers 7.12502
lthumb 28.0772 0.000487508
rfemur 19.2185 -2.32506 16.4277
rtibia 0.899266
rfoot -16.4005 -0.28895
rtoes 5.95104
lfemur -14.6796 -3.3762 -7.81245
ltibia 16.8635
lfoot -9.78891 6.06839
ltoes -22.4462
966
root 11.5195 17.0525 1.43706 160.54 80.0396 156.508
lowerback 3.77446 0.112896 2.53237
upperback 3.99589 0.291551 1.05688
thorax 1.99593 0.236294 -0.337538
lowerneck -25.4044 0.387277 4.53971
upperneck 37.8533 -0.327299 -0.314156
head 18.6007 0.883398 -0.89387
rclavicle -5.56597e-015 -1.35174e-014
rhumerus 34.0417 14.0007 -44.3946
rradius 37.3297
rwrist -1.76117
rhand -0.575545 -26.8966
rfingers 7.12502
rthumb 25.039 -55.2754
lclavicle -5.56597e-015 -1.35174e-014
lhumerus 36.489 -22.2672 37.511
lradius 42.1964
lwrist 0.252162
lhand 2.70956 -28.0646
lfingers 7.12502
lthumb 28.183 -0.163228
rfemur 19.7459 -2.55475 15.1384
rtibia 0.736648
rfoot -15.9679 -0.27181
rtoes 5.31339
lfemur -15.3369 -3.42772 -9.61901
ltibia 16.3102
lfoot -9.1968 6.17852
ltoes -19.1473
967
root 11.6047 17.0602 1.39281 156.65 80.2772 152.32
lowerback 3.67242 0.227397 2.1419
upperback 4.0706 0.431741 0.91628
thorax 2.13089 0.299725 -0.264884
lowerneck -25.3046 0.476293 4.73437
upperneck 37.8029 -0.171988 -0.560904
head 18.5496 0.932418 -1.01025
rclavicle -6.75868e-015 -3.65764e-014
rhumerus 34.0774 13.9275 -44.7281
rradius 37.2131
rwrist -1.29302
rhand -0.435501 -26.4202
rfingers 7.12502
rthumb 25.1732 -54.7802
lclavicle -6.75868e-015 -3.65764e-014
lhumerus 36.3781 -22.1889 37.2683
lradius 42.2558
lwrist 0.332186
lhand 2.62188 -27.8486
lfingers 7.12502
lthumb 28.0992 0.0665182
rfemur 19.5703 -2.71725 14.0608
rtibia 1.14256
rfoot -15.3025 0.285705
rtoes 6.57028
lfemur -16.1018 -3.05465 -10.9468
ltibia 15.6834
lfoot -8.54316 6.66711
ltoes -19.1406
968
root 11.6983 17.0688 1.35175 155.208 80.623 150.852
lowerback 3.82163 0.347736 2.28213
upperback 4.15255 0.601937 0.858158
thorax 2.13806 0.391261 -0.406581
lowerneck -25.1986 0.535713 4.94998
upperneck 37.8075 -0.0727442 -0.78728
head 18.5279 0.970122 -1.13254
rclavicle -4.37326e-015 -7.95139e-015
rhumerus 33.8661 13.8375 -45.0635
rradius 37.1991
rwrist -0.956595
rhand -0.0943429 -26.3927
rfingers 7.12502
rthumb 25.5 -54.7064
lclavicle -4.37326e-015 -7.95139e-015
lhumerus 36.4246 -22.2101 37.0883
lradius 42.1841
lwrist 0.315887
lhand 2.68687 -27.8582
lfingers 7.12502
lthumb 28.1613 0.046724
rfemur 19.7891 -2.5493 13.8013
rtibia 1.28371
rfoot -14.8742 0.425748
rtoes 6.91878
lfemur -16.5716 -2.61342 -11.6731
ltibia 14.973
lfoot -7.96316 6.99458
ltoes -19.8604
